<?xml version="1.0" standalone="no"?>
<!DOCTYPE svg PUBLIC "-//W3C//DTD SVG 20010904//EN"
 "http://www.w3.org/TR/2001/REC-SVG-20010904/DTD/svg10.dtd">
<svg version="1.0" xmlns="http://www.w3.org/2000/svg"
 width="52.000000pt" height="52.000000pt" viewBox="0 0 52.000000 52.000000"
 preserveAspectRatio="xMidYMid meet">

<g transform="translate(0.000000,52.000000) scale(0.100000,-0.100000)"
fill="#000000" stroke="none">
<path d="M93 460 c-12 -5 -26 -18 -32 -29 -14 -25 -14 -350 -1 -371 8 -12 18
-6 57 33 l49 47 136 0 c114 0 138 3 149 17 10 12 14 50 14 144 0 172 10 163
-193 166 -86 1 -167 -2 -179 -7z m332 -155 l0 -120 -136 -3 c-130 -2 -137 -4
-159 -27 -13 -14 -27 -25 -32 -25 -10 0 -11 284 -1 294 4 3 79 5 167 4 l161
-3 0 -120z"/>
</g>
</svg>
